<svg width="23" height="23" viewBox="0 0 23 23" fill="none" xmlns="http://www.w3.org/2000/svg">
<rect x="0.078125" y="0.53125" width="22" height="22" rx="11" fill="#8E8B8C"/>
<g clip-path="url(#clip0_5_4155)">
<path d="M5.61074 8.46201V16.0098H7.64735V8.46201H5.61074ZM11.8239 8.46265C12.5362 8.46265 14.6078 8.75148 14.6078 11.3246V16.0098H12.4505V11.2581C12.4505 10.701 12.1348 10.3119 11.4515 10.3119C10.3172 10.3119 10.392 11.2581 10.392 11.2581V16.0098H8.34444V8.46201H10.392V9.05897C10.7063 8.81817 11.0781 8.46265 11.8239 8.46265ZM5.58887 6.74661C5.58887 6.17838 6.04988 5.71737 6.61811 5.71737C7.18633 5.71737 7.64735 6.17838 7.64735 6.74661C7.64735 7.31483 7.18633 7.77585 6.61811 7.77585C6.04988 7.77585 5.58887 7.31483 5.58887 6.74661Z" fill="white"/>
</g>
<defs>
<clipPath id="clip0_5_4155">
<rect width="11" height="11" fill="white" transform="matrix(1 0 0 -1 5.57812 16.0312)"/>
</clipPath>
</defs>
</svg>
