<svg width="12" height="12" viewBox="0 0 12 12" fill="none" xmlns="http://www.w3.org/2000/svg">
<g clip-path="url(#clip0_5_4156)">
<path d="M0.610739 3.46201V11.0098H2.64735V3.46201H0.610739ZM6.82392 3.46265C7.53624 3.46265 9.60779 3.75148 9.60779 6.32458V11.0098H7.45047V6.25811C7.45047 5.70103 7.13483 5.31185 6.45146 5.31185C5.31715 5.31185 5.39199 6.25811 5.39199 6.25811V11.0098H3.34444V3.46201H5.39199V4.05897C5.70633 3.81817 6.07815 3.46265 6.82392 3.46265ZM0.588867 1.74661C0.588867 1.17838 1.04988 0.717368 1.61811 0.717368C2.18633 0.717368 2.64735 1.17838 2.64735 1.74661C2.64735 2.31483 2.18633 2.77585 1.61811 2.77585C1.04988 2.77585 0.588867 2.31483 0.588867 1.74661Z" fill="white"/>
</g>
<defs>
<clipPath id="clip0_5_4156">
<rect width="11" height="11" fill="white" transform="matrix(1 0 0 -1 0.578125 11.0312)"/>
</clipPath>
</defs>
</svg>
