<svg width="12" height="12" viewBox="0 0 12 12" fill="none" xmlns="http://www.w3.org/2000/svg">
<g clip-path="url(#clip0_5_4174)">
<path d="M0.266989 3.46201V11.0098H2.3036V3.46201H0.266989ZM6.48017 3.46265C7.19249 3.46265 9.26404 3.75148 9.26404 6.32458V11.0098H7.10672V6.25811C7.10672 5.70103 6.79108 5.31185 6.10771 5.31185C4.9734 5.31185 5.04824 6.25811 5.04824 6.25811V11.0098H3.00069V3.46201H5.04824V4.05897C5.36258 3.81817 5.7344 3.46265 6.48017 3.46265ZM0.245117 1.74661C0.245117 1.17838 0.706131 0.717368 1.27436 0.717368C1.84258 0.717368 2.3036 1.17838 2.3036 1.74661C2.3036 2.31483 1.84258 2.77585 1.27436 2.77585C0.706131 2.77585 0.245117 2.31483 0.245117 1.74661Z" fill="white"/>
</g>
<defs>
<clipPath id="clip0_5_4174">
<rect width="11" height="11" fill="white" transform="matrix(1 0 0 -1 0.234375 11.0312)"/>
</clipPath>
</defs>
</svg>
