<svg width="12" height="9" viewBox="0 0 12 9" fill="none" xmlns="http://www.w3.org/2000/svg">
<path d="M11.3436 0.225069C11.1755 0.749981 10.8187 1.19191 10.3534 1.47045C10.8091 1.4162 11.2426 1.29484 11.6468 1.11579C11.3449 1.56715 10.9628 1.96384 10.5215 2.28012C10.5265 2.37682 10.5284 2.47439 10.5284 2.57174C10.5284 5.54838 8.26278 8.98047 4.11966 8.98047C2.84748 8.98047 1.66385 8.60715 0.666992 7.96838C0.843249 7.98897 1.02229 7.9999 1.20413 7.9999C2.25953 7.9999 3.23109 7.63967 4.00173 7.03585C3.01645 7.01741 2.18469 6.3662 1.89801 5.4714C2.03588 5.49756 2.17654 5.51193 2.32192 5.51193C2.52777 5.51193 2.72676 5.48448 2.91545 5.43302C1.88557 5.22589 1.10892 4.31522 1.10892 3.22423V3.19614C1.41276 3.36489 1.75992 3.46653 2.12916 3.47875C1.52534 3.07542 1.12736 2.38583 1.12736 1.60425C1.12736 1.19127 1.23779 0.804231 1.43206 0.472087C2.543 1.83476 4.20265 2.7317 6.07457 2.82561C6.03619 2.66094 6.01625 2.48875 6.01625 2.31228C6.01625 1.06905 7.02491 0.0603905 8.269 0.0603905C8.91656 0.0603905 9.50194 0.333568 9.913 0.771852C10.4261 0.670429 10.9086 0.483022 11.3436 0.225069Z" fill="white"/>
</svg>
